# xmcd
#
# Track frame offsets:
#	150
#	14042
#	30293
#	32749
#	47341
#	58606
#	71103
#	81968
#	95478
#	111198
#	136245
#	150552
#	168076
#	173702
#	196920
#	215808
#	239664
#	255427
#
# Disc length: 3649 seconds
#
# Revision: 0
# Processed by: cddbd v1.5.1PL2 Copyright (c) Steve Scherf et al.
# Submitted via: EasyCDDAExtractor 5.0.5.1
#
DISCID=f00e3f12
DTITLE=Various Artist - Blues Brothers 2000
DYEAR=1997
DGENRE=Blues
TTITLE0=The Paul Butterfield Blues Band - Born In Chicago
TTITLE1=Matt "Guitar" Murphy - The Blues Don't Bother Me
TTITLE2=John Popper - Harmonica Musings
TTITLE3=Dan Aykroyd, Lonnie Brooks, Junior Wells and The Blues Brothers Band /
TTITLE3=Cheaper To Keep Her
TTITLE4=The Blues Brothers Band - Perry Mason Theme
TTITLE5=John Goodman, Dan Aykroyd and The Blues Brothers Band - Looking For A 
TTITLE5=Fox
TTITLE6=The Blues Brothers Band - Can't Turn You Loose
TTITLE7=Aretha Franklin and The Blues Brothers Band - R-E-S-P-E-C-T
TTITLE8=Eddie Floyd, Wilson Pickett, Johnny Lang and The Blues Brothers Band /
TTITLE8=634-5789
TTITLE9=Blues Traveller - Maybe I'm Wrong
TTITLE10=Dan Aykroyd, John Goodman and The Blues Brothers Band - Riders In The
TTITLE10=Sky (A Cowboy Legend)
TTITLE11=Taj Mahal, Sam Moore, Joe Morton, Sharon Riley and The Faith Chorale 
TTITLE11=/ John The Revelator
TTITLE12=The Carl Lafong Trio - Let There Be Drums
TTITLE13=Dr. John and The Blues Brothers Band - Season Of The Witch
TTITLE14=Joe Morton, Dan Aykroyd, John Goodman, Paul Shaffer, Erykah Badu and 
TTITLE14=The Blues Brothers Band - Funky Nassau
TTITLE15=The Louisianna Gator Boys - How Blue Can You Get
TTITLE16=Joe Morton, Dan Aykroyd, John Goodman, J. Evan Bonifant and The Blues
TTITLE16=Brothers Band - Turn On Your Love Light
TTITLE17=The Louisianna Gator Boys and The Blues Brothers Band - New Orleans
EXTD=BLUES BROTHERS 2000 - Original Motion Picture Soundtrack
EXTT0=
EXTT1=
EXTT2=
EXTT3=
EXTT4=
EXTT5=
EXTT6=
EXTT7=
EXTT8=
EXTT9=
EXTT10=
EXTT11=
EXTT12=
EXTT13=
EXTT14=
EXTT15=
EXTT16=
EXTT17=
PLAYORDER=
